<svg width="30" height="30" viewBox="0 0 30 30" fill="none" xmlns="http://www.w3.org/2000/svg">
<path d="M22.91 15.04C22.91 14.67 22.79 14.36 22.54 14.12L18.7 10.37C18.48 10.12 18.19 9.99001 17.85 9.99001C17.5 9.99001 17.2 10.11 16.96 10.34C16.72 10.57 16.59 10.87 16.59 11.22C16.59 11.57 16.71 11.87 16.96 12.11L18.6 13.75L8.3 13.75C7.95 13.75 7.66 13.87 7.43 14.12C7.2 14.37 7.09 14.67 7.09 15.02C7.09 15.37 7.2 15.67 7.43 15.92C7.66 16.17 7.95 16.3 8.3 16.31H18.6L16.96 17.97C16.72 18.21 16.59 18.5 16.59 18.83C16.59 19.18 16.71 19.48 16.96 19.72C17.21 19.96 17.5 20.1 17.86 20.1C18.18 20.1 18.47 19.96 18.71 19.69L22.55 15.94C22.79 15.69 22.91 15.4 22.91 15.04Z" fill="black"/>
</svg>
