<svg width="60" height="42" viewBox="0 0 60 42" fill="none" xmlns="http://www.w3.org/2000/svg">
<path fill-rule="evenodd" clip-rule="evenodd" d="M0 27.4723C0 29.3789 0.346654 31.17 1.09774 32.9032C1.81993 34.6365 2.80212 36.1098 4.04429 37.3808C5.28647 38.623 6.75975 39.663 8.46413 40.4141C10.1685 41.194 11.9596 41.6273 13.8662 41.714C14.1839 41.714 14.3572 41.5407 14.3572 41.2229V37.3808C14.3572 37.0342 14.1839 36.832 13.8662 36.832C11.3529 36.6586 9.2441 35.6476 7.53972 33.8565C5.83534 32.0655 4.9687 29.9278 4.9687 27.4723C4.9687 25.0457 5.77756 22.9369 7.42417 21.1459C9.07077 19.3548 11.064 18.3438 13.4906 18.1415L14.9928 17.9393C15.3683 17.9393 15.5705 17.766 15.5705 17.4482L15.7727 15.9461C15.975 13.895 16.6394 12.0173 17.766 10.313C18.8926 8.63746 20.3659 7.30862 22.157 6.35532C23.948 5.40202 25.8835 4.93981 27.9634 4.93981C31.1122 4.93981 33.8854 5.97978 36.2253 8.0597C38.5941 10.1396 39.923 12.7395 40.2407 15.8594L40.4141 17.506C40.4141 17.8527 40.5874 18.026 40.9629 18.026H45.6139C48.2138 18.026 50.4381 18.9504 52.3158 20.8281C54.1647 22.6769 55.1179 24.9013 55.1179 27.4723C55.1179 29.9278 54.2513 32.0655 52.5469 33.8565C50.8426 35.6476 48.7337 36.6586 46.2205 36.832C45.845 36.832 45.6427 37.0053 45.6427 37.3808V41.2229C45.6427 41.5407 45.845 41.714 46.2205 41.714C50.0915 41.5407 53.3558 40.0674 56.0135 37.3519C58.6712 34.6365 60 31.3144 60 27.4723C60 24.9013 59.3645 22.5036 58.0645 20.3081C56.7646 18.1127 55.0313 16.3794 52.8358 15.1083C50.6403 13.8373 48.2427 13.1728 45.6716 13.1728H44.7472C43.7939 9.33076 41.7429 6.18199 38.6519 3.69764C35.4454 1.21329 31.8921 0 27.9345 0C23.8613 0 20.2504 1.27106 17.1016 3.84208C13.9528 6.41309 11.9018 9.64853 11.0063 13.6062C7.79971 14.3572 5.17092 16.0327 3.11988 18.6326C1.03996 21.2037 0 24.1502 0 27.4723ZM14.4439 33.2612H17.8863V27.2267H17.9218L21.5594 33.2612H25.0905V22.22H21.6481V28.1054H21.6126L18.1702 22.22H14.4439V33.2612ZM26.0132 33.5099H28.5507L33.182 21.9548H30.6623L26.0132 33.5099ZM31.1059 33.2612H34.779L35.2935 31.6863H39.0554L39.5522 33.2612H43.3317L39.0199 22.22H35.4532L31.1059 33.2612ZM36.092 29.299L37.2277 25.917H37.2809L38.3456 29.299H36.092Z" fill="black"/>
</svg>
